<mxfile host="app.diagrams.net" agent="Mozilla/5.0 (Windows NT 10.0; Win64; x64) AppleWebKit/537.36 (KHTML, like Gecko) Chrome/134.0.0.0 Safari/537.36" version="26.1.1">
  <diagram name="Page-1" id="t8hOuBsWLFm7wDWejeqC">
    <mxGraphModel dx="6669" dy="2351" grid="1" gridSize="10" guides="1" tooltips="1" connect="1" arrows="1" fold="1" page="0" pageScale="1" pageWidth="850" pageHeight="1100" math="0" shadow="0">
      <root>
        <mxCell id="0" />
        <mxCell id="1" parent="0" />
        <mxCell id="HX4Neu3e52eezReKFDbQ-5" value="" style="edgeStyle=none;curved=1;rounded=0;orthogonalLoop=1;jettySize=auto;html=1;fontSize=12;startSize=8;endSize=8;" edge="1" parent="1" source="HX4Neu3e52eezReKFDbQ-3" target="HX4Neu3e52eezReKFDbQ-4">
          <mxGeometry relative="1" as="geometry" />
        </mxCell>
        <mxCell id="HX4Neu3e52eezReKFDbQ-3" value="Start" style="rounded=1;whiteSpace=wrap;html=1;fillColor=#f8cecc;strokeColor=#b85450;" vertex="1" parent="1">
          <mxGeometry x="-810" y="-400" width="170" height="50" as="geometry" />
        </mxCell>
        <mxCell id="HX4Neu3e52eezReKFDbQ-8" value="No" style="edgeStyle=none;curved=1;rounded=0;orthogonalLoop=1;jettySize=auto;html=1;exitX=0;exitY=0.5;exitDx=0;exitDy=0;entryX=1;entryY=0.5;entryDx=0;entryDy=0;fontSize=12;startSize=8;endSize=8;" edge="1" parent="1" source="HX4Neu3e52eezReKFDbQ-4" target="HX4Neu3e52eezReKFDbQ-7">
          <mxGeometry relative="1" as="geometry" />
        </mxCell>
        <mxCell id="HX4Neu3e52eezReKFDbQ-10" value="Yes" style="edgeStyle=none;curved=1;rounded=0;orthogonalLoop=1;jettySize=auto;html=1;exitX=1;exitY=0.5;exitDx=0;exitDy=0;entryX=0;entryY=0.5;entryDx=0;entryDy=0;fontSize=12;startSize=8;endSize=8;" edge="1" parent="1" source="HX4Neu3e52eezReKFDbQ-4" target="HX4Neu3e52eezReKFDbQ-9">
          <mxGeometry relative="1" as="geometry" />
        </mxCell>
        <mxCell id="HX4Neu3e52eezReKFDbQ-4" value="Have an account?" style="rhombus;whiteSpace=wrap;html=1;fillColor=#fff2cc;strokeColor=#d6b656;" vertex="1" parent="1">
          <mxGeometry x="-790" y="-250" width="130" height="110" as="geometry" />
        </mxCell>
        <mxCell id="HX4Neu3e52eezReKFDbQ-7" value="Register" style="rounded=0;whiteSpace=wrap;html=1;fillColor=#dae8fc;strokeColor=#6c8ebf;" vertex="1" parent="1">
          <mxGeometry x="-1060" y="-225" width="120" height="60" as="geometry" />
        </mxCell>
        <mxCell id="HX4Neu3e52eezReKFDbQ-9" value="Login" style="rounded=0;whiteSpace=wrap;html=1;fillColor=#dae8fc;strokeColor=#6c8ebf;" vertex="1" parent="1">
          <mxGeometry x="-490" y="-225" width="120" height="60" as="geometry" />
        </mxCell>
        <mxCell id="HX4Neu3e52eezReKFDbQ-15" style="edgeStyle=none;curved=1;rounded=0;orthogonalLoop=1;jettySize=auto;html=1;exitX=0;exitY=0.5;exitDx=0;exitDy=0;fontSize=12;startSize=8;endSize=8;startArrow=classic;startFill=1;endArrow=none;" edge="1" parent="1" source="HX4Neu3e52eezReKFDbQ-12">
          <mxGeometry relative="1" as="geometry">
            <mxPoint x="-999.9999999999999" y="-20.25" as="targetPoint" />
          </mxGeometry>
        </mxCell>
        <mxCell id="HX4Neu3e52eezReKFDbQ-50" style="edgeStyle=none;curved=1;rounded=0;orthogonalLoop=1;jettySize=auto;html=1;exitX=0.75;exitY=1;exitDx=0;exitDy=0;fontSize=12;startSize=8;endSize=8;startArrow=none;startFill=0;endArrow=none;" edge="1" parent="1">
          <mxGeometry relative="1" as="geometry">
            <mxPoint x="220" y="620" as="targetPoint" />
            <mxPoint x="220" as="sourcePoint" />
          </mxGeometry>
        </mxCell>
        <mxCell id="HX4Neu3e52eezReKFDbQ-12" value="Home Dashboard" style="rounded=0;whiteSpace=wrap;html=1;fillColor=#dae8fc;strokeColor=#6c8ebf;" vertex="1" parent="1">
          <mxGeometry x="-785" y="-50" width="120" height="60" as="geometry" />
        </mxCell>
        <mxCell id="HX4Neu3e52eezReKFDbQ-14" value="" style="endArrow=none;html=1;rounded=0;fontSize=12;startSize=8;endSize=8;curved=1;entryX=0.5;entryY=1;entryDx=0;entryDy=0;" edge="1" parent="1" target="HX4Neu3e52eezReKFDbQ-7">
          <mxGeometry width="50" height="50" relative="1" as="geometry">
            <mxPoint x="-1000" y="-20" as="sourcePoint" />
            <mxPoint x="-1000" y="-170" as="targetPoint" />
          </mxGeometry>
        </mxCell>
        <mxCell id="HX4Neu3e52eezReKFDbQ-16" style="edgeStyle=none;curved=1;rounded=0;orthogonalLoop=1;jettySize=auto;html=1;exitX=0;exitY=0.5;exitDx=0;exitDy=0;fontSize=12;startSize=8;endSize=8;startArrow=none;startFill=0;endArrow=classic;endFill=1;" edge="1" parent="1">
          <mxGeometry relative="1" as="geometry">
            <mxPoint x="-664.9999999999999" y="-21" as="targetPoint" />
            <mxPoint x="-450" y="-20.75" as="sourcePoint" />
          </mxGeometry>
        </mxCell>
        <mxCell id="HX4Neu3e52eezReKFDbQ-17" value="" style="endArrow=none;html=1;rounded=0;fontSize=12;startSize=8;endSize=8;curved=1;entryX=0.5;entryY=1;entryDx=0;entryDy=0;" edge="1" parent="1">
          <mxGeometry width="50" height="50" relative="1" as="geometry">
            <mxPoint x="-450" y="-20" as="sourcePoint" />
            <mxPoint x="-450" y="-165" as="targetPoint" />
          </mxGeometry>
        </mxCell>
        <mxCell id="HX4Neu3e52eezReKFDbQ-18" value="" style="endArrow=none;html=1;rounded=0;fontSize=12;startSize=8;endSize=8;curved=1;entryX=0.5;entryY=1;entryDx=0;entryDy=0;exitX=0.5;exitY=0;exitDx=0;exitDy=0;" edge="1" parent="1" source="HX4Neu3e52eezReKFDbQ-53">
          <mxGeometry width="50" height="50" relative="1" as="geometry">
            <mxPoint x="-690" y="120" as="sourcePoint" />
            <mxPoint x="-690" y="10" as="targetPoint" />
          </mxGeometry>
        </mxCell>
        <mxCell id="HX4Neu3e52eezReKFDbQ-19" style="edgeStyle=none;curved=1;rounded=0;orthogonalLoop=1;jettySize=auto;html=1;fontSize=12;startSize=8;endSize=8;startArrow=none;startFill=0;endArrow=none;" edge="1" parent="1">
          <mxGeometry relative="1" as="geometry">
            <mxPoint x="-2080" y="120" as="targetPoint" />
            <mxPoint x="100" y="120" as="sourcePoint" />
          </mxGeometry>
        </mxCell>
        <mxCell id="HX4Neu3e52eezReKFDbQ-20" value="" style="endArrow=none;html=1;rounded=0;fontSize=12;startSize=8;endSize=8;curved=1;entryX=0.5;entryY=1;entryDx=0;entryDy=0;endFill=1;startFill=1;startArrow=classic;" edge="1" parent="1">
          <mxGeometry width="50" height="50" relative="1" as="geometry">
            <mxPoint x="-1850" y="230" as="sourcePoint" />
            <mxPoint x="-1850" y="120" as="targetPoint" />
          </mxGeometry>
        </mxCell>
        <mxCell id="HX4Neu3e52eezReKFDbQ-21" value="Add Account" style="rounded=0;whiteSpace=wrap;html=1;fillColor=#dae8fc;strokeColor=#6c8ebf;" vertex="1" parent="1">
          <mxGeometry x="-1910" y="340" width="120" height="60" as="geometry" />
        </mxCell>
        <mxCell id="HX4Neu3e52eezReKFDbQ-25" value="" style="edgeStyle=none;curved=1;rounded=0;orthogonalLoop=1;jettySize=auto;html=1;fontSize=12;startSize=8;endSize=8;" edge="1" parent="1" source="HX4Neu3e52eezReKFDbQ-22" target="HX4Neu3e52eezReKFDbQ-21">
          <mxGeometry relative="1" as="geometry" />
        </mxCell>
        <mxCell id="HX4Neu3e52eezReKFDbQ-22" value="All Accounts" style="rounded=0;whiteSpace=wrap;html=1;fillColor=#dae8fc;strokeColor=#6c8ebf;" vertex="1" parent="1">
          <mxGeometry x="-1910" y="230" width="120" height="60" as="geometry" />
        </mxCell>
        <mxCell id="HX4Neu3e52eezReKFDbQ-26" value="" style="endArrow=none;html=1;rounded=0;fontSize=12;startSize=8;endSize=8;curved=1;entryX=0.5;entryY=1;entryDx=0;entryDy=0;endFill=1;startFill=1;startArrow=classic;" edge="1" parent="1">
          <mxGeometry width="50" height="50" relative="1" as="geometry">
            <mxPoint x="-1630" y="230" as="sourcePoint" />
            <mxPoint x="-1630" y="120" as="targetPoint" />
          </mxGeometry>
        </mxCell>
        <mxCell id="HX4Neu3e52eezReKFDbQ-27" value="Add expense" style="rounded=0;whiteSpace=wrap;html=1;fillColor=#dae8fc;strokeColor=#6c8ebf;" vertex="1" parent="1">
          <mxGeometry x="-1690" y="340" width="120" height="60" as="geometry" />
        </mxCell>
        <mxCell id="HX4Neu3e52eezReKFDbQ-28" value="" style="edgeStyle=none;curved=1;rounded=0;orthogonalLoop=1;jettySize=auto;html=1;fontSize=12;startSize=8;endSize=8;" edge="1" parent="1" source="HX4Neu3e52eezReKFDbQ-29" target="HX4Neu3e52eezReKFDbQ-27">
          <mxGeometry relative="1" as="geometry" />
        </mxCell>
        <mxCell id="HX4Neu3e52eezReKFDbQ-29" value="Categories" style="rounded=0;whiteSpace=wrap;html=1;fillColor=#dae8fc;strokeColor=#6c8ebf;" vertex="1" parent="1">
          <mxGeometry x="-1690" y="230" width="120" height="60" as="geometry" />
        </mxCell>
        <mxCell id="HX4Neu3e52eezReKFDbQ-30" value="" style="endArrow=none;html=1;rounded=0;fontSize=12;startSize=8;endSize=8;curved=1;entryX=0.5;entryY=1;entryDx=0;entryDy=0;endFill=1;startFill=1;startArrow=classic;" edge="1" parent="1">
          <mxGeometry width="50" height="50" relative="1" as="geometry">
            <mxPoint x="-1425" y="230" as="sourcePoint" />
            <mxPoint x="-1425" y="120" as="targetPoint" />
          </mxGeometry>
        </mxCell>
        <mxCell id="HX4Neu3e52eezReKFDbQ-36" value="Yes" style="edgeStyle=none;curved=1;rounded=0;orthogonalLoop=1;jettySize=auto;html=1;fontSize=12;startSize=8;endSize=8;startArrow=classic;startFill=1;endArrow=none;" edge="1" parent="1" source="HX4Neu3e52eezReKFDbQ-31" target="HX4Neu3e52eezReKFDbQ-34">
          <mxGeometry relative="1" as="geometry" />
        </mxCell>
        <mxCell id="HX4Neu3e52eezReKFDbQ-31" value="Add budget" style="rounded=0;whiteSpace=wrap;html=1;fillColor=#dae8fc;strokeColor=#6c8ebf;" vertex="1" parent="1">
          <mxGeometry x="-1295" y="375" width="120" height="60" as="geometry" />
        </mxCell>
        <mxCell id="HX4Neu3e52eezReKFDbQ-35" value="" style="edgeStyle=none;curved=1;rounded=0;orthogonalLoop=1;jettySize=auto;html=1;fontSize=12;startSize=8;endSize=8;" edge="1" parent="1" source="HX4Neu3e52eezReKFDbQ-33" target="HX4Neu3e52eezReKFDbQ-34">
          <mxGeometry relative="1" as="geometry" />
        </mxCell>
        <mxCell id="HX4Neu3e52eezReKFDbQ-33" value="Transactions" style="rounded=0;whiteSpace=wrap;html=1;fillColor=#dae8fc;strokeColor=#6c8ebf;" vertex="1" parent="1">
          <mxGeometry x="-1485" y="230" width="120" height="60" as="geometry" />
        </mxCell>
        <mxCell id="HX4Neu3e52eezReKFDbQ-34" value="Add budget?" style="rhombus;whiteSpace=wrap;html=1;fillColor=#fff2cc;strokeColor=#d6b656;" vertex="1" parent="1">
          <mxGeometry x="-1490" y="350" width="130" height="110" as="geometry" />
        </mxCell>
        <mxCell id="HX4Neu3e52eezReKFDbQ-37" value="" style="endArrow=none;html=1;rounded=0;fontSize=12;startSize=8;endSize=8;curved=1;entryX=0.5;entryY=1;entryDx=0;entryDy=0;endFill=1;startFill=1;startArrow=classic;" edge="1" parent="1">
          <mxGeometry width="50" height="50" relative="1" as="geometry">
            <mxPoint x="-1060" y="230" as="sourcePoint" />
            <mxPoint x="-1060" y="120" as="targetPoint" />
          </mxGeometry>
        </mxCell>
        <mxCell id="HX4Neu3e52eezReKFDbQ-38" value="Yes" style="edgeStyle=none;curved=1;rounded=0;orthogonalLoop=1;jettySize=auto;html=1;fontSize=12;startSize=8;endSize=8;startArrow=classic;startFill=1;endArrow=none;" edge="1" parent="1" source="HX4Neu3e52eezReKFDbQ-44" target="HX4Neu3e52eezReKFDbQ-42">
          <mxGeometry relative="1" as="geometry">
            <mxPoint x="-925" y="515" as="sourcePoint" />
          </mxGeometry>
        </mxCell>
        <mxCell id="HX4Neu3e52eezReKFDbQ-43" value="" style="edgeStyle=none;curved=1;rounded=0;orthogonalLoop=1;jettySize=auto;html=1;fontSize=12;startSize=8;endSize=8;" edge="1" parent="1" source="HX4Neu3e52eezReKFDbQ-39" target="HX4Neu3e52eezReKFDbQ-42">
          <mxGeometry relative="1" as="geometry" />
        </mxCell>
        <mxCell id="HX4Neu3e52eezReKFDbQ-39" value="Select Category" style="rounded=0;whiteSpace=wrap;html=1;fillColor=#dae8fc;strokeColor=#6c8ebf;" vertex="1" parent="1">
          <mxGeometry x="-1120" y="350" width="120" height="60" as="geometry" />
        </mxCell>
        <mxCell id="HX4Neu3e52eezReKFDbQ-40" value="" style="edgeStyle=none;curved=1;rounded=0;orthogonalLoop=1;jettySize=auto;html=1;fontSize=12;startSize=8;endSize=8;" edge="1" parent="1">
          <mxGeometry relative="1" as="geometry">
            <mxPoint x="-1060.5" y="290" as="sourcePoint" />
            <mxPoint x="-1060.5" y="350" as="targetPoint" />
          </mxGeometry>
        </mxCell>
        <mxCell id="HX4Neu3e52eezReKFDbQ-41" value="Savings" style="rounded=0;whiteSpace=wrap;html=1;fillColor=#dae8fc;strokeColor=#6c8ebf;" vertex="1" parent="1">
          <mxGeometry x="-1120" y="230" width="120" height="60" as="geometry" />
        </mxCell>
        <mxCell id="HX4Neu3e52eezReKFDbQ-42" value="Add Savings?" style="rhombus;whiteSpace=wrap;html=1;fillColor=#fff2cc;strokeColor=#d6b656;" vertex="1" parent="1">
          <mxGeometry x="-1125" y="460" width="130" height="110" as="geometry" />
        </mxCell>
        <mxCell id="HX4Neu3e52eezReKFDbQ-46" style="edgeStyle=none;curved=1;rounded=0;orthogonalLoop=1;jettySize=auto;html=1;exitX=0.5;exitY=1;exitDx=0;exitDy=0;entryX=0.5;entryY=0;entryDx=0;entryDy=0;fontSize=12;startSize=8;endSize=8;" edge="1" parent="1" source="HX4Neu3e52eezReKFDbQ-44" target="HX4Neu3e52eezReKFDbQ-45">
          <mxGeometry relative="1" as="geometry" />
        </mxCell>
        <mxCell id="HX4Neu3e52eezReKFDbQ-44" value="Add savings" style="rounded=0;whiteSpace=wrap;html=1;fillColor=#dae8fc;strokeColor=#6c8ebf;" vertex="1" parent="1">
          <mxGeometry x="-920" y="485" width="120" height="60" as="geometry" />
        </mxCell>
        <mxCell id="HX4Neu3e52eezReKFDbQ-51" value="Yes" style="edgeStyle=none;curved=1;rounded=0;orthogonalLoop=1;jettySize=auto;html=1;exitX=1;exitY=0.5;exitDx=0;exitDy=0;fontSize=12;startSize=8;endSize=8;endArrow=none;startFill=0;" edge="1" parent="1" source="HX4Neu3e52eezReKFDbQ-45">
          <mxGeometry relative="1" as="geometry">
            <mxPoint x="223" y="620" as="targetPoint" />
          </mxGeometry>
        </mxCell>
        <mxCell id="HX4Neu3e52eezReKFDbQ-45" value="Save?" style="rhombus;whiteSpace=wrap;html=1;fillColor=#fff2cc;strokeColor=#d6b656;" vertex="1" parent="1">
          <mxGeometry x="-925" y="570" width="130" height="110" as="geometry" />
        </mxCell>
        <mxCell id="HX4Neu3e52eezReKFDbQ-52" style="edgeStyle=none;curved=1;rounded=0;orthogonalLoop=1;jettySize=auto;html=1;fontSize=12;startSize=8;endSize=8;startArrow=classic;startFill=1;endArrow=none;" edge="1" parent="1">
          <mxGeometry relative="1" as="geometry">
            <mxPoint x="220" as="targetPoint" />
            <mxPoint x="-660" as="sourcePoint" />
          </mxGeometry>
        </mxCell>
        <mxCell id="HX4Neu3e52eezReKFDbQ-98" value="" style="edgeStyle=none;curved=1;rounded=0;orthogonalLoop=1;jettySize=auto;html=1;fontSize=12;startSize=8;endSize=8;" edge="1" parent="1" source="HX4Neu3e52eezReKFDbQ-53" target="HX4Neu3e52eezReKFDbQ-97">
          <mxGeometry relative="1" as="geometry" />
        </mxCell>
        <mxCell id="HX4Neu3e52eezReKFDbQ-53" value="Analysis" style="rounded=0;whiteSpace=wrap;html=1;fillColor=#dae8fc;strokeColor=#6c8ebf;" vertex="1" parent="1">
          <mxGeometry x="-750" y="230" width="120" height="60" as="geometry" />
        </mxCell>
        <mxCell id="HX4Neu3e52eezReKFDbQ-54" style="edgeStyle=none;curved=1;rounded=0;orthogonalLoop=1;jettySize=auto;html=1;exitX=0.5;exitY=1;exitDx=0;exitDy=0;entryX=0.5;entryY=0;entryDx=0;entryDy=0;fontSize=12;startSize=8;endSize=8;" edge="1" parent="1">
          <mxGeometry relative="1" as="geometry">
            <mxPoint x="-690" y="290" as="sourcePoint" />
            <mxPoint x="-690" y="314.9999999999998" as="targetPoint" />
          </mxGeometry>
        </mxCell>
        <mxCell id="HX4Neu3e52eezReKFDbQ-76" style="edgeStyle=none;curved=1;rounded=0;orthogonalLoop=1;jettySize=auto;html=1;exitX=0;exitY=0.5;exitDx=0;exitDy=0;fontSize=12;startSize=8;endSize=8;endArrow=none;startFill=1;startArrow=classic;" edge="1" parent="1" source="HX4Neu3e52eezReKFDbQ-56">
          <mxGeometry relative="1" as="geometry">
            <mxPoint x="-599.9999999999998" y="269.6896551724137" as="targetPoint" />
          </mxGeometry>
        </mxCell>
        <mxCell id="HX4Neu3e52eezReKFDbQ-56" value="Daily" style="rounded=0;whiteSpace=wrap;html=1;fillColor=#dae8fc;strokeColor=#6c8ebf;" vertex="1" parent="1">
          <mxGeometry x="-530" y="240" width="120" height="60" as="geometry" />
        </mxCell>
        <mxCell id="HX4Neu3e52eezReKFDbQ-75" style="edgeStyle=none;curved=1;rounded=0;orthogonalLoop=1;jettySize=auto;html=1;exitX=0;exitY=0.5;exitDx=0;exitDy=0;fontSize=12;startSize=8;endSize=8;endArrow=none;startFill=1;startArrow=classic;" edge="1" parent="1" source="HX4Neu3e52eezReKFDbQ-57">
          <mxGeometry relative="1" as="geometry">
            <mxPoint x="-599.9999999999998" y="344.8620689655172" as="targetPoint" />
          </mxGeometry>
        </mxCell>
        <mxCell id="HX4Neu3e52eezReKFDbQ-57" value="Weekly" style="rounded=0;whiteSpace=wrap;html=1;fillColor=#dae8fc;strokeColor=#6c8ebf;" vertex="1" parent="1">
          <mxGeometry x="-530" y="315" width="120" height="60" as="geometry" />
        </mxCell>
        <mxCell id="HX4Neu3e52eezReKFDbQ-73" style="edgeStyle=none;curved=1;rounded=0;orthogonalLoop=1;jettySize=auto;html=1;exitX=0;exitY=0.5;exitDx=0;exitDy=0;fontSize=12;startSize=8;endSize=8;endArrow=none;startFill=1;startArrow=classic;" edge="1" parent="1" source="HX4Neu3e52eezReKFDbQ-58">
          <mxGeometry relative="1" as="geometry">
            <mxPoint x="-599.9999999999998" y="420.0344827586207" as="targetPoint" />
          </mxGeometry>
        </mxCell>
        <mxCell id="HX4Neu3e52eezReKFDbQ-58" value="Monthly" style="rounded=0;whiteSpace=wrap;html=1;fillColor=#dae8fc;strokeColor=#6c8ebf;" vertex="1" parent="1">
          <mxGeometry x="-530" y="390" width="120" height="60" as="geometry" />
        </mxCell>
        <mxCell id="HX4Neu3e52eezReKFDbQ-74" style="edgeStyle=none;curved=1;rounded=0;orthogonalLoop=1;jettySize=auto;html=1;exitX=0;exitY=0.5;exitDx=0;exitDy=0;fontSize=12;startSize=8;endSize=8;endArrow=none;startFill=1;startArrow=classic;" edge="1" parent="1" source="HX4Neu3e52eezReKFDbQ-59">
          <mxGeometry relative="1" as="geometry">
            <mxPoint x="-599.9999999999998" y="489.6896551724137" as="targetPoint" />
          </mxGeometry>
        </mxCell>
        <mxCell id="HX4Neu3e52eezReKFDbQ-59" value="Yearly" style="rounded=0;whiteSpace=wrap;html=1;fillColor=#dae8fc;strokeColor=#6c8ebf;" vertex="1" parent="1">
          <mxGeometry x="-530" y="460" width="120" height="60" as="geometry" />
        </mxCell>
        <mxCell id="HX4Neu3e52eezReKFDbQ-64" value="Pick time frame" style="rounded=0;whiteSpace=wrap;html=1;fillColor=#dae8fc;strokeColor=#6c8ebf;" vertex="1" parent="1">
          <mxGeometry x="-750" y="315" width="120" height="60" as="geometry" />
        </mxCell>
        <mxCell id="HX4Neu3e52eezReKFDbQ-67" value="" style="endArrow=none;html=1;rounded=0;fontSize=12;startSize=8;endSize=8;curved=1;exitX=1;exitY=0.5;exitDx=0;exitDy=0;" edge="1" parent="1" source="HX4Neu3e52eezReKFDbQ-64">
          <mxGeometry width="50" height="50" relative="1" as="geometry">
            <mxPoint x="-660" y="345.21" as="sourcePoint" />
            <mxPoint x="-540" y="345" as="targetPoint" />
          </mxGeometry>
        </mxCell>
        <mxCell id="HX4Neu3e52eezReKFDbQ-71" value="" style="endArrow=none;html=1;rounded=0;fontSize=12;startSize=8;endSize=8;curved=1;" edge="1" parent="1">
          <mxGeometry width="50" height="50" relative="1" as="geometry">
            <mxPoint x="-600" y="490" as="sourcePoint" />
            <mxPoint x="-600" y="270" as="targetPoint" />
          </mxGeometry>
        </mxCell>
        <mxCell id="HX4Neu3e52eezReKFDbQ-77" value="" style="endArrow=none;html=1;rounded=0;fontSize=12;startSize=8;endSize=8;curved=1;exitX=0.5;exitY=0;exitDx=0;exitDy=0;" edge="1" parent="1">
          <mxGeometry width="50" height="50" relative="1" as="geometry">
            <mxPoint x="-330" y="220" as="sourcePoint" />
            <mxPoint x="-330" y="120" as="targetPoint" />
          </mxGeometry>
        </mxCell>
        <mxCell id="HX4Neu3e52eezReKFDbQ-78" value="Built-in Calculator" style="rounded=0;whiteSpace=wrap;html=1;fillColor=#dae8fc;strokeColor=#6c8ebf;" vertex="1" parent="1">
          <mxGeometry x="-390" y="210" width="120" height="60" as="geometry" />
        </mxCell>
        <mxCell id="HX4Neu3e52eezReKFDbQ-79" value="" style="endArrow=none;html=1;rounded=0;fontSize=12;startSize=8;endSize=8;curved=1;exitX=0.5;exitY=0;exitDx=0;exitDy=0;" edge="1" parent="1">
          <mxGeometry width="50" height="50" relative="1" as="geometry">
            <mxPoint x="-190" y="220" as="sourcePoint" />
            <mxPoint x="-190" y="120" as="targetPoint" />
          </mxGeometry>
        </mxCell>
        <mxCell id="HX4Neu3e52eezReKFDbQ-80" value="Currency Exchange" style="rounded=0;whiteSpace=wrap;html=1;fillColor=#dae8fc;strokeColor=#6c8ebf;" vertex="1" parent="1">
          <mxGeometry x="-250" y="210" width="120" height="60" as="geometry" />
        </mxCell>
        <mxCell id="HX4Neu3e52eezReKFDbQ-85" value="" style="endArrow=none;html=1;rounded=0;fontSize=12;startSize=8;endSize=8;curved=1;entryX=0.5;entryY=1;entryDx=0;entryDy=0;endFill=1;startFill=1;startArrow=classic;" edge="1" parent="1">
          <mxGeometry width="50" height="50" relative="1" as="geometry">
            <mxPoint x="-2080" y="230" as="sourcePoint" />
            <mxPoint x="-2080" y="120" as="targetPoint" />
          </mxGeometry>
        </mxCell>
        <mxCell id="HX4Neu3e52eezReKFDbQ-88" value="Financial Education" style="rounded=0;whiteSpace=wrap;html=1;fillColor=#dae8fc;strokeColor=#6c8ebf;" vertex="1" parent="1">
          <mxGeometry x="-2140" y="230" width="120" height="60" as="geometry" />
        </mxCell>
        <mxCell id="HX4Neu3e52eezReKFDbQ-89" value="Videos" style="rounded=0;whiteSpace=wrap;html=1;fillColor=#dae8fc;strokeColor=#6c8ebf;" vertex="1" parent="1">
          <mxGeometry x="-2290" y="510" width="120" height="60" as="geometry" />
        </mxCell>
        <mxCell id="HX4Neu3e52eezReKFDbQ-90" value="" style="edgeStyle=none;curved=1;rounded=0;orthogonalLoop=1;jettySize=auto;html=1;fontSize=12;startSize=8;endSize=8;endArrow=classic;startFill=0;entryX=0.413;entryY=-0.015;entryDx=0;entryDy=0;entryPerimeter=0;endFill=1;" edge="1" parent="1" target="HX4Neu3e52eezReKFDbQ-92">
          <mxGeometry relative="1" as="geometry">
            <mxPoint x="-2080" y="290" as="sourcePoint" />
            <mxPoint x="-2080" y="440" as="targetPoint" />
          </mxGeometry>
        </mxCell>
        <mxCell id="HX4Neu3e52eezReKFDbQ-91" value="" style="endArrow=none;html=1;rounded=0;fontSize=12;startSize=8;endSize=8;curved=1;" edge="1" parent="1">
          <mxGeometry width="50" height="50" relative="1" as="geometry">
            <mxPoint x="-2230" y="440" as="sourcePoint" />
            <mxPoint x="-1930" y="440" as="targetPoint" />
          </mxGeometry>
        </mxCell>
        <mxCell id="HX4Neu3e52eezReKFDbQ-92" value="Articles" style="rounded=0;whiteSpace=wrap;html=1;fillColor=#dae8fc;strokeColor=#6c8ebf;" vertex="1" parent="1">
          <mxGeometry x="-2130" y="510" width="120" height="60" as="geometry" />
        </mxCell>
        <mxCell id="HX4Neu3e52eezReKFDbQ-94" value="Podcasts" style="rounded=0;whiteSpace=wrap;html=1;fillColor=#dae8fc;strokeColor=#6c8ebf;" vertex="1" parent="1">
          <mxGeometry x="-1970" y="510" width="120" height="60" as="geometry" />
        </mxCell>
        <mxCell id="HX4Neu3e52eezReKFDbQ-95" value="" style="endArrow=classic;html=1;rounded=0;fontSize=12;startSize=8;endSize=8;curved=1;entryX=0.624;entryY=-0.067;entryDx=0;entryDy=0;entryPerimeter=0;" edge="1" parent="1">
          <mxGeometry width="50" height="50" relative="1" as="geometry">
            <mxPoint x="-2230" y="440" as="sourcePoint" />
            <mxPoint x="-2230.12" y="510" as="targetPoint" />
          </mxGeometry>
        </mxCell>
        <mxCell id="HX4Neu3e52eezReKFDbQ-96" value="" style="endArrow=classic;html=1;rounded=0;fontSize=12;startSize=8;endSize=8;curved=1;entryX=0.25;entryY=0.077;entryDx=0;entryDy=0;entryPerimeter=0;" edge="1" parent="1">
          <mxGeometry width="50" height="50" relative="1" as="geometry">
            <mxPoint x="-1930" y="440" as="sourcePoint" />
            <mxPoint x="-1930" y="509.9999999999999" as="targetPoint" />
          </mxGeometry>
        </mxCell>
        <mxCell id="HX4Neu3e52eezReKFDbQ-97" value="Charts download" style="rounded=0;whiteSpace=wrap;html=1;fillColor=#dae8fc;strokeColor=#6c8ebf;" vertex="1" parent="1">
          <mxGeometry x="-925" y="230" width="120" height="60" as="geometry" />
        </mxCell>
        <mxCell id="HX4Neu3e52eezReKFDbQ-102" value="" style="endArrow=none;html=1;rounded=0;fontSize=12;startSize=8;endSize=8;curved=1;exitX=0.5;exitY=0;exitDx=0;exitDy=0;" edge="1" parent="1">
          <mxGeometry width="50" height="50" relative="1" as="geometry">
            <mxPoint x="-50" y="220" as="sourcePoint" />
            <mxPoint x="-50" y="120" as="targetPoint" />
          </mxGeometry>
        </mxCell>
        <mxCell id="HX4Neu3e52eezReKFDbQ-103" value="My badges" style="rounded=0;whiteSpace=wrap;html=1;fillColor=#dae8fc;strokeColor=#6c8ebf;" vertex="1" parent="1">
          <mxGeometry x="-110" y="210" width="120" height="60" as="geometry" />
        </mxCell>
        <mxCell id="HX4Neu3e52eezReKFDbQ-107" value="" style="endArrow=none;html=1;rounded=0;fontSize=12;startSize=8;endSize=8;curved=1;exitX=0.5;exitY=0;exitDx=0;exitDy=0;" edge="1" parent="1">
          <mxGeometry width="50" height="50" relative="1" as="geometry">
            <mxPoint x="100" y="220" as="sourcePoint" />
            <mxPoint x="100" y="120" as="targetPoint" />
          </mxGeometry>
        </mxCell>
        <mxCell id="HX4Neu3e52eezReKFDbQ-108" value="Logout" style="rounded=0;whiteSpace=wrap;html=1;fillColor=#dae8fc;strokeColor=#6c8ebf;" vertex="1" parent="1">
          <mxGeometry x="40" y="210" width="120" height="60" as="geometry" />
        </mxCell>
        <mxCell id="HX4Neu3e52eezReKFDbQ-109" value="" style="endArrow=none;html=1;rounded=0;fontSize=12;startSize=8;endSize=8;curved=1;exitX=0.5;exitY=0;exitDx=0;exitDy=0;" edge="1" parent="1">
          <mxGeometry width="50" height="50" relative="1" as="geometry">
            <mxPoint x="99.52" y="370" as="sourcePoint" />
            <mxPoint x="99.52" y="270" as="targetPoint" />
          </mxGeometry>
        </mxCell>
        <mxCell id="HX4Neu3e52eezReKFDbQ-110" value="End" style="rounded=1;whiteSpace=wrap;html=1;fillColor=#f8cecc;strokeColor=#b85450;" vertex="1" parent="1">
          <mxGeometry x="10" y="370" width="170" height="50" as="geometry" />
        </mxCell>
      </root>
    </mxGraphModel>
  </diagram>
</mxfile>
